Coordinates
nRows=109
nColumns=2
inDegrees=yes
endheader
time	ankle_angle_r	
3.22077	 -5.031126	
3.29234	 -5.035400	
3.36391	 -5.096436	
3.43548	 -5.025040	
3.50706	 -5.096436	
3.57863	 -5.025456	
3.6502	 -5.090913	
3.72177	 -5.107897	
3.79335	 -5.026081	
3.86492	 -5.026289	
3.93649	 -5.035400	
4.00806	 -5.050659	
4.07964	 -5.042171	
4.15121	 -5.028421	
4.22278	 -5.097321	
4.29435	 -5.051128	
4.36593	 -5.043056	
4.4375	 -5.035764	
4.50907	 -5.081177	
4.58065	 -5.103467	
4.65222	 -5.049048	
4.72379	 -5.065918	
4.79536	 -5.068361	
4.86694	 -5.126953	
4.93851	 -5.044668	
5.01008	 -4.980149	
5.08165	 -5.085284	
5.15323	 -5.045291	
5.2248	 -5.055599	
5.29637	 -5.030449	
5.36794	 -5.070662	
5.43952	 -5.142212	
5.51109	 -5.020142	
5.58266	 -5.035400	
5.65423	 -5.027965	
5.72581	 -5.027548	
5.79738	 -5.020142	
5.86895	 -4.996199	
5.94052	 -5.038480	
6.0121	 -5.035400	
6.08367	 -5.035400	
6.15524	 -5.017686	
6.22681	 -5.042142	
6.29839	 -5.063879	
6.36996	 -5.020142	
6.44153	 -5.037024	
6.5131	 -5.020142	
6.58468	 -5.067125	
6.65625	 -4.991622	
6.72782	 -4.988833	
6.7994	 -5.065918	
6.87097	 -5.035400	
6.94254	 -5.035400	
7.01411	 -5.020142	
7.08569	 -5.050410	
7.15726	 -5.095978	
7.22883	 -5.020142	
7.3004	 -5.021888	
7.37198	 -5.034319	
7.44355	 -5.065918	
7.51512	 -5.007877	
7.58669	 -5.018436	
7.65827	 -5.048746	
7.72984	 -5.039643	
7.80141	 -5.081177	
7.87298	 -5.040475	
7.94456	 -5.063173	
8.01613	 -5.078223	
8.0877	 -5.038562	
8.15927	 -5.054029	
8.23085	 -5.031823	
8.30242	 -5.100221	
8.37399	 -5.028129	
8.44556	 -5.004883	
8.51714	 -5.035400	
8.58871	 -5.041424	
8.66028	 -5.061092	
8.73185	 -4.999691	
8.80343	 -5.030159	
8.875	 -5.086627	
8.94657	 -4.980023	
9.01815	 -5.020142	
9.08972	 -4.965180	
9.16129	 -5.053355	
9.23286	 -4.993834	
9.30444	 -4.982926	
9.37601	 -5.025600	
9.44758	 -5.043545	
9.51915	 -5.050659	
9.59073	 -4.989624	
9.6623	 -5.004883	
9.73387	 -5.065918	
9.80544	 -5.035400	
9.87702	 -5.035400	
9.94859	 -5.013453	
10.0202	 -5.072399	
10.0917	 -5.038114	
10.1633	 -5.004883	
10.2349	 -5.044802	
10.3065	 -5.016181	
10.378	 -5.046282	
10.4496	 -4.984391	
10.5212	 -5.009908	
10.5927	 -5.147028	
10.6643	 -5.111694	
10.7359	 -5.055060	
10.8075	 -5.138019	
10.879	 -5.172729	
10.9506	 -5.134659	
